<svg width="24" height="24" viewBox="0 0 25 28" fill="none" xmlns="http://www.w3.org/2000/svg">
<path d="M17.3662 0.666671C17.9323 0.665341 18.3799 1.10512 18.3812 1.69149L18.3825 2.69099C22.0554 2.97885 24.4816 5.4816 24.4855 9.31967L24.5 20.554C24.5053 24.7386 21.8763 27.3133 17.6624 27.32L7.36919 27.3333C3.1816 27.3386 0.519764 24.7026 0.514499 20.5061L0.500009 9.40363C0.494752 5.54023 2.83538 3.04415 6.50824 2.70699L6.50692 1.70749C6.5056 1.12111 6.94003 0.680001 7.51926 0.680001C8.09849 0.678668 8.53292 1.11845 8.53423 1.70482L8.53555 2.63769L16.3552 2.62703L16.3539 1.69416C16.3526 1.10779 16.787 0.668007 17.3662 0.666671ZM17.9033 19.5892H17.8902C17.2846 19.6039 16.7988 20.1116 16.812 20.7246C16.8133 21.3377 17.3017 21.8427 17.9073 21.8561C18.5247 21.8547 19.0249 21.347 19.0236 20.7206C19.0236 20.0943 18.522 19.5892 17.9033 19.5892ZM7.05588 19.5905C6.45031 19.6172 5.9764 20.1249 5.97771 20.738C6.00536 21.351 6.5056 21.8307 7.11117 21.8028C7.70488 21.7761 8.17748 21.2684 8.14983 20.6553C8.13667 20.0556 7.64827 19.5892 7.05588 19.5905ZM12.4796 19.5839C11.874 19.6119 11.4014 20.1183 11.4014 20.7313C11.4291 21.3443 11.9293 21.8227 12.5349 21.7961C13.1273 21.7681 13.6012 21.2617 13.5736 20.6473C13.5604 20.049 13.072 19.5825 12.4796 19.5839ZM7.04929 14.7929C6.44373 14.8196 5.97113 15.3273 5.97244 15.9404C5.99878 16.5534 6.50034 17.0331 7.1059 17.0052C7.6983 16.9785 8.1709 16.4708 8.14325 15.8577C8.13009 15.258 7.64301 14.7916 7.04929 14.7929ZM12.4743 14.7463C11.8688 14.7729 11.3949 15.2807 11.3962 15.8937C11.4225 16.5067 11.9241 16.9852 12.5296 16.9585C13.122 16.9305 13.5946 16.4241 13.5683 15.8111C13.5538 15.2114 13.0667 14.745 12.4743 14.7463ZM17.8981 14.753C17.2925 14.7663 16.8186 15.2594 16.8199 15.8724V15.8871C16.8331 16.5001 17.3333 16.9652 17.9402 16.9519C18.5326 16.9372 19.0052 16.4294 18.992 15.8164C18.9644 15.23 18.4891 14.7516 17.8981 14.753ZM16.3578 4.67933L8.53818 4.68999L8.5395 5.76812C8.5395 6.3425 8.10639 6.7956 7.52716 6.7956C6.94793 6.79694 6.51219 6.34516 6.51219 5.77078L6.51087 4.74463C3.94382 5.00184 2.52338 6.51041 2.52732 9.40097L2.52865 9.81543L22.4595 9.78877V9.32234C22.4029 6.45711 20.9654 4.95386 18.3851 4.72997L18.3865 5.75613C18.3865 6.32917 17.9402 6.78361 17.3741 6.78361C16.7949 6.78494 16.3591 6.33184 16.3591 5.75879L16.3578 4.67933Z" />
</svg>
