<svg width="20" height="20" viewBox="0 0 20 20" fill="none" xmlns="http://www.w3.org/2000/svg">
<path d="M10 19C14.9706 19 19 14.9706 19 10C19 5.02944 14.9706 1 10 1C5.02944 1 1 5.02944 1 10C1 14.9706 5.02944 19 10 19Z" stroke="white" stroke-width="2" stroke-miterlimit="10"/>
<path d="M10 4C8.81331 4 7.65328 4.35189 6.66658 5.01118C5.67989 5.67047 4.91085 6.60754 4.45673 7.7039C4.0026 8.80026 3.88378 10.0067 4.11529 11.1705C4.3468 12.3344 4.91825 13.4035 5.75736 14.2426C6.59648 15.0818 7.66557 15.6532 8.82946 15.8847C9.99335 16.1162 11.1997 15.9974 12.2961 15.5433C13.3925 15.0891 14.3295 14.3201 14.9888 13.3334C15.6481 12.3467 16 11.1867 16 10C15.9966 8.40975 15.3633 6.88562 14.2389 5.76114C13.1144 4.63667 11.5902 4.00343 10 4ZM10.7216 8.03297C10.1391 7.00293 9.49856 6.00674 8.80324 5.04919C9.11326 4.95435 9.4358 4.90678 9.76 4.90811C9.84865 4.90811 9.94 4.91135 10.0341 4.91784C11.2765 4.91745 12.476 5.37267 13.4054 6.1973C13.3065 6.32865 12.52 7.3454 10.7168 8.03297H10.7216ZM4.98433 8.96703C5.1412 8.18934 5.48203 7.46053 5.97828 6.84155C6.47454 6.22257 7.1118 5.73142 7.83676 5.40919C8.51956 6.3573 9.14918 7.3426 9.7227 8.36054C8.17241 8.74738 6.58207 8.95093 4.98433 8.96703ZM11.573 9.80378C11.5405 9.72108 11.4903 9.62378 11.4578 9.54108C11.3589 9.27838 11.2276 9.05459 11.1141 8.80324C13.0162 8.01676 13.853 6.90108 13.9665 6.76973C14.7056 7.67423 15.1211 8.79981 15.147 9.96757C14.3593 9.81524 13.5591 9.73706 12.7568 9.73405C12.3638 9.73303 11.9712 9.75632 11.5811 9.80378H11.573ZM5.15622 9.85892C6.84487 9.84618 8.52377 9.60173 10.1459 9.13243C10.3081 9.42757 10.4411 9.7227 10.5724 10.0178C10.4989 10.0184 10.4264 10.035 10.36 10.0665C7.72162 10.9178 6.2946 13.2627 6.1973 13.4427C5.34699 12.5035 4.87396 11.2831 4.86919 10.0162V9.85405C4.90973 9.85405 5.00865 9.85405 5.15784 9.85405L5.15622 9.85892ZM12.8524 14.2616C12.6271 13.0179 12.2978 11.7952 11.8681 10.6065C12.2209 10.5494 12.5778 10.5212 12.9351 10.5222C13.6551 10.5246 14.3714 10.625 15.0643 10.8205C14.9452 11.5131 14.6879 12.1746 14.308 12.7658C13.928 13.3569 13.433 13.8656 12.8524 14.2616ZM10 15.1146C8.85875 15.1041 7.75268 14.7183 6.85243 14.0168C6.95135 13.8368 8.00054 11.8357 10.8692 10.8205H10.9016C11.3888 12.0839 11.7564 13.3901 11.9995 14.7222C11.3669 14.9887 10.6863 15.1223 10 15.1146Z" fill="white"/>
</svg>
