<svg width="16" height="17" viewBox="0 0 16 17" fill="none" xmlns="http://www.w3.org/2000/svg">
<path d="M7.98726 0C10.5445 0 12.6022 2.01232 12.6022 4.49667V5.77445C14.0375 6.22247 15.0833 7.52178 15.0833 9.07367V13.1878C15.0833 15.109 13.4905 16.6667 11.5268 16.6667H4.47396C2.50942 16.6667 0.916626 15.109 0.916626 13.1878V9.07367C0.916626 7.52178 1.96325 6.22247 3.3977 5.77445V4.49667C3.40617 2.01232 5.46385 0 7.98726 0ZM7.99573 9.4869C7.58927 9.4869 7.25903 9.80987 7.25903 10.2074V12.0458C7.25903 12.4516 7.58927 12.7745 7.99573 12.7745C8.41065 12.7745 8.74089 12.4516 8.74089 12.0458V10.2074C8.74089 9.80987 8.41065 9.4869 7.99573 9.4869ZM8.00419 1.4492C6.28523 1.4492 4.88803 2.80731 4.87957 4.48011V5.59475H11.1204V4.49667C11.1204 2.8156 9.72316 1.4492 8.00419 1.4492Z" fill="white"/>
</svg>
