<svg width="30" height="25" viewBox="0 0 30 25" fill="none" xmlns="http://www.w3.org/2000/svg">
<path d="M30 2.88538C28.8715 3.37757 27.678 3.70467 26.4562 3.85663C27.7438 3.0928 28.7064 1.88331 29.1619 0.457251C27.9563 1.17226 26.6373 1.67577 25.2619 1.946C24.4186 1.04559 23.324 0.419599 22.1203 0.149366C20.9166 -0.120868 19.6595 -0.0228545 18.5122 0.430671C17.3649 0.884197 16.3806 1.67227 15.687 2.69251C14.9935 3.71274 14.6228 4.91798 14.6231 6.15163C14.6231 6.63913 14.6644 7.10788 14.7656 7.55413C12.3189 7.43417 9.92504 6.79915 7.74056 5.6906C5.55609 4.58204 3.63018 3.02491 2.08875 1.121C1.29904 2.47449 1.05489 4.07808 1.40603 5.60526C1.75717 7.13243 2.67719 8.46836 3.97875 9.341C3.00517 9.31489 2.05214 9.05509 1.2 8.5835V8.651C1.20163 10.0712 1.6925 11.4474 2.58997 12.5481C3.48744 13.6488 4.73672 14.4066 6.1275 14.6941C5.60135 14.8328 5.0591 14.9009 4.515 14.8966C4.12423 14.9036 3.73385 14.8684 3.35062 14.7916C3.74801 16.0123 4.51404 17.0798 5.54324 17.847C6.57243 18.6143 7.81418 19.0437 9.0975 19.076C6.92051 20.7786 4.23558 21.7022 1.47188 21.6991C0.9675 21.6991 0.48375 21.6766 0 21.6147C2.81228 23.427 6.08939 24.3857 9.435 24.3748C20.7525 24.3748 26.94 14.9998 26.94 6.8735C26.94 6.60163 26.9306 6.33913 26.9175 6.0785C28.1306 5.21035 29.1751 4.12828 30 2.88538Z" fill="#03A9F4"/>
</svg>
